<svg aria-hidden="true" style="width:0;height:0;position:absolute;overflow:hidden" xmlns="http://www.w3.org/2000/svg"><defs><symbol id="unkraine-emblem" viewBox="0 0 20 32"><path fill="#fff" style="fill:var(--color1,#fff)" d="M9.005 30.888a8.64 8.64 0 0 1-3.414-5.351H0V2.42c2.991 1.443 5.153 4.599 5.388 7.876l.846 6.493-.407-.045c-.893 0-1.676.812-1.676 1.608 0 .752.595 1.383 1.378 1.548l1.018.226c1.676-3.051 2.631-6.042 2.631-8.973 0-2.645-.36-5.291-.423-7.996 0-1.202.486-2.3 1.253-3.156.783.857 1.253 1.954 1.253 3.156 0 2.705-.423 5.351-.423 7.996 0 2.931.955 5.922 2.631 8.973l1.018-.226c.783-.165 1.378-.812 1.378-1.548 0-.812-.783-1.608-1.676-1.608l-.423.06.846-6.493c.423-3.277 2.396-6.448 5.388-7.876v23.117h-5.576c-.423 2.179-1.613 4.148-3.414 5.351-.423.286-.783.631-1.018 1.097-.219-.466-.579-.812-.987-1.112zM2.647 17.556c.235-.857.893-1.608 1.738-2.074l-.658-5.351a8.288 8.288 0 0 0-2.036-4.374v11.784h.955v.015zm2.819 6.373c0-.812.125-1.548.298-2.3l-.783-.18c-1.143-.346-2.036-1.203-2.334-2.3h-.955v4.78h3.774zm3.712 0c0-.977-.783-1.834-1.801-1.954-.172.631-.298 1.263-.298 1.954h2.099zm0 1.623H7.314c.298 1.263.955 2.42 1.864 3.397v-3.397zm2.631-5.005c-.72-1.262-1.378-2.585-1.801-3.968-.423 1.383-1.081 2.706-1.801 3.968.72.165 1.316.631 1.801 1.157.486-.526 1.081-.992 1.801-1.157zm1.143 3.382c0-.691-.125-1.323-.297-1.954-1.018.12-1.801.977-1.801 1.954h2.099zm-.235 1.623h-1.864v3.397c.908-.992 1.566-2.134 1.864-3.397zm5.623-1.623v-4.78h-.955c-.298 1.097-1.206 1.954-2.334 2.3l-.783.18c.172.752.298 1.488.298 2.3h3.774zm0-6.373V5.757c-1.081 1.202-1.864 2.706-2.036 4.374l-.658 5.351c.846.466 1.504 1.203 1.739 2.074h.955z"/></symbol><symbol id="mail-icon" viewBox="0 0 32 32"><path d="M9.067 4.19c-2.24 0-3.519-.059-4.734.56a5.141 5.141 0 0 0-2.248 2.248c-.619 1.215-.56 2.496-.56 4.737v8.533c0 2.24-.059 3.519.56 4.734a5.141 5.141 0 0 0 2.248 2.248c1.215.619 2.494.56 4.734.56h13.866c2.24 0 3.519.059 4.734-.56a5.146 5.146 0 0 0 2.248-2.248c.619-1.215.56-2.494.56-4.734v-8.533c0-.875-.01-1.514-.036-2.15a1.135 1.135 0 0 0-.013-.55l.002.008c-.061-.774-.197-1.424-.513-2.045a5.141 5.141 0 0 0-2.248-2.248c-1.215-.619-2.494-.56-4.734-.56zm0 2.285h13.866c2.24 0 3.2.06 3.696.313.538.274.976.71 1.25 1.248.059.117.034.692.074.871L17.79 16.019c-.881.617-1.231.825-1.422.873-.242.06-.495.06-.737 0-.191-.048-.543-.256-1.424-.873L4.046 8.907c.04-.179.014-.754.074-.871a2.856 2.856 0 0 1 1.25-1.248c.496-.253 1.456-.313 3.696-.313zM3.826 11.54l6.533 4.574-6.411 5.79c-.035-.561-.138-.645-.138-1.636v-8.533c0-.118.015-.084.016-.194zm24.348 0c0 .111.016.077.016.194v8.533c0 .992-.104 1.075-.138 1.636l-6.411-5.79zm-15.895 5.918.618.433c.882.617 1.413 1.025 2.181 1.217a3.81 3.81 0 0 0 1.844 0c.768-.191 1.299-.599 2.181-1.217l.616-.431 7.705 6.96c-.244.29-.453.618-.795.792-.496.253-1.456.313-3.696.313H9.067c-2.24 0-3.2-.06-3.696-.313-.342-.174-.55-.503-.795-.792z"/></symbol><symbol id="lock-icon" viewBox="0 0 32 32"><path d="M16 2.857c-4.3 0-7.81 3.511-7.81 7.81v2.895c-.966.043-1.797.152-2.525.522a5.146 5.146 0 0 0-2.248 2.248c-.619 1.215-.56 2.494-.56 4.734v.533c0 2.24-.059 3.519.56 4.734a5.146 5.146 0 0 0 2.248 2.248c1.215.619 2.494.56 4.734.56H21.6c2.24 0 3.519.059 4.734-.56a5.141 5.141 0 0 0 2.248-2.248c.619-1.215.56-2.494.56-4.734v-.533c0-2.24.059-3.519-.56-4.734a5.141 5.141 0 0 0-2.248-2.248c-.727-.371-1.559-.479-2.525-.522v-2.895c0-4.3-3.511-7.81-7.81-7.81zm0 2.286a5.508 5.508 0 0 1 5.525 5.525v2.857H10.476v-2.857a5.508 5.508 0 0 1 5.525-5.525zM10.4 15.81h11.201c2.24 0 3.2.057 3.696.31.538.274.974.712 1.248 1.25.253.496.313 1.456.313 3.696v.533c0 2.24-.06 3.2-.313 3.696-.274.538-.71.974-1.248 1.248-.496.253-1.456.313-3.696.313H10.4c-2.24 0-3.2-.06-3.696-.313a2.851 2.851 0 0 1-1.248-1.248c-.253-.496-.313-1.456-.313-3.696v-.533c0-2.24.06-3.2.313-3.696.274-.538.71-.976 1.248-1.25.496-.253 1.456-.31 3.696-.31z"/></symbol><symbol id="close-icon" viewBox="0 0 32 32"><path d="M8 6.286a1.71 1.71 0 0 0-1.212.502c-.31.31-.502.739-.502 1.212s.192.902.502 1.212L13.576 16l-6.788 6.788c-.31.31-.502.739-.502 1.212s.192.902.502 1.212c.31.31.739.502 1.212.502s.902-.192 1.212-.502L16 18.424l6.788 6.788c.31.31.739.502 1.212.502s.902-.192 1.212-.502c.31-.31.502-.739.502-1.212s-.192-.902-.502-1.212L18.424 16l6.788-6.788c.31-.31.502-.739.502-1.212s-.192-.902-.502-1.212c-.31-.31-.739-.502-1.212-.502s-.902.192-1.212.502L16 13.576 9.212 6.788A1.71 1.71 0 0 0 8 6.286z"/></symbol><symbol id="burger-nemu-icon" viewBox="0 0 32 32"><path d="M4 12.19a1.143 1.143 0 0 0 0 2.286h18.667a1.143 1.143 0 0 0 0-2.286zM4 6.857a1.143 1.143 0 0 0 0 2.286h24a1.143 1.143 0 0 0 0-2.286zM4 17.525a1.143 1.143 0 0 0 0 2.286h24a1.143 1.143 0 0 0 0-2.286zM4 22.857a1.143 1.143 0 0 0 0 2.286h18.667a1.143 1.143 0 0 0 0-2.286z"/></symbol><symbol id="trash-icon" viewBox="0 0 32 32"><path fill="#fff" style="fill:var(--color1,#fff)" d="M12 2.545a1.455 1.455 0 0 0 0 2.91h8a1.455 1.455 0 0 0 0-2.91zm-8 4a1.455 1.455 0 0 0 0 2.91h1.307l.844 12.668c.14 2.104.157 3.357.852 4.577a5.46 5.46 0 0 0 2.361 2.21c1.263.612 2.516.545 4.625.545h4.023c2.109 0 3.362.067 4.625-.545a5.467 5.467 0 0 0 2.361-2.21c.695-1.22.712-2.472.852-4.577l.844-12.668h1.307a1.455 1.455 0 0 0 0-2.91zm4.222 2.91h15.557l-.832 12.474c-.14 2.104-.263 2.956-.477 3.332a2.54 2.54 0 0 1-1.102 1.028c-.389.189-1.246.256-3.355.256H13.99c-2.109 0-2.966-.067-3.355-.256a2.534 2.534 0 0 1-1.102-1.028c-.214-.376-.337-1.228-.477-3.332zm5.11 3.09c-.803 0-1.455.651-1.455 1.455v6.668a1.455 1.455 0 0 0 2.91 0V14c0-.803-.651-1.455-1.455-1.455zm5.336 0c-.803 0-1.455.651-1.455 1.455v6.668a1.455 1.455 0 0 0 2.91 0V14c0-.803-.651-1.455-1.455-1.455z"/></symbol><symbol id="user-icon" viewBox="0 0 32 32"><path fill="#4f2ee8" style="fill:var(--color2,#4f2ee8)" d="M5.333 29.333a10.662 10.662 0 0 1 18.208-7.543c2 2 3.124 4.714 3.124 7.543H5.332zm10.667-12c-4.42 0-8-3.58-8-8s3.58-8 8-8 8 3.58 8 8-3.58 8-8 8z"/></symbol><symbol id="scroll-up-arrow" viewBox="0 0 32 32"><path d="M4.5 19.6 15.7 8.367c.133-.133.278-.228.433-.283s.322-.084.5-.084.345.028.5.084.3.149.433.283L28.799 19.6c.311.311.467.7.467 1.167s-.167.867-.5 1.2c-.333.333-.722.5-1.167.5s-.833-.167-1.167-.5l-9.8-9.8-9.8 9.8c-.311.311-.694.467-1.149.467s-.851-.167-1.184-.5-.5-.722-.5-1.167c0-.444.167-.833.5-1.167z"/></symbol><symbol id="arrow-right-login" viewBox="0 0 32 32"><path fill="#eac645" style="fill:var(--color3,#eac645)" d="M18.666 6.4A1.596 1.596 0 0 0 17.067 8c0 .442.179.842.468 1.131l5.269 5.269H5.335a1.6 1.6 0 1 0 0 3.2h17.469l-5.269 5.269c-.289.29-.468.689-.468 1.131s.179.842.468 1.131c.29.289.689.468 1.131.468s.842-.179 1.131-.468l8-8c.193-.192.338-.434.413-.704l.003-.011a1.597 1.597 0 0 0-.001-.294v.006c.015-.032.033-.074.049-.117l.004-.011c-.012-.1-.03-.19-.056-.277l.003.011a1.634 1.634 0 0 0-.046-.239l.003.011a1.602 1.602 0 0 0-.372-.638l.001.001-8-8a1.593 1.593 0 0 0-1.131-.469z"/></symbol><symbol id="logo" viewBox="0 0 32 32"><path fill="#f6f6f6" style="fill:var(--color4,#f6f6f6)" d="m0 0 16.343 16.171L32 32V0H0z"/><path fill="#f6f6f6" style="fill:var(--color4,#f6f6f6)" d="M4.457 4.229 16.4 16.058l11.257 11.486h-23.2V4.23z"/><path fill="#4f2ee8" style="fill:var(--color2,#4f2ee8)" d="M27.733 27.618 15.79 15.789 4.533 4.303h23.2v23.314z"/><path fill="#4f2ee8" style="fill:var(--color2,#4f2ee8)" d="m9.257 9.029 13.6 13.6h-13.6v-13.6z"/><path fill="#f6f6f6" style="fill:var(--color4,#f6f6f6)" d="m9.257 9.029 13.6 13.6v-13.6h-13.6z"/></symbol><symbol id="logo-text" viewBox="0 0 178 32"><path d="M22.176 8.533c0-4.731-3.497-7.406-9.545-7.406H0v29.417h13.33c6.089 0 9.998-2.921 9.998-8.599 0-4.402-2.633-6.665-5.719-7.2v-.082c2.427-.823 4.567-2.51 4.567-6.13zm-17.28 4.772V5.282h7.858c2.921 0 4.526 1.44 4.526 4.032s-1.317 3.991-4.814 3.991h-7.57zm0 3.662h8.599c3.086 0 4.937 1.687 4.937 4.69 0 2.757-1.275 4.731-5.472 4.731H4.896v-9.422zM35.89 31.161c-6.583 0-10.574-4.567-10.574-11.109S29.307 8.943 35.89 8.943s10.574 4.567 10.574 11.109-3.991 11.109-10.574 11.109zm0-3.538c4.114 0 6.254-3.25 6.254-7.57 0-4.361-2.139-7.57-6.254-7.57s-6.254 3.209-6.254 7.57c0 4.32 2.139 7.57 6.254 7.57zM58.912 31.161c-6.583 0-10.574-4.567-10.574-11.109S52.329 8.943 58.912 8.943s10.574 4.567 10.574 11.109-3.991 11.109-10.574 11.109zm0-3.538c4.114 0 6.254-3.25 6.254-7.57 0-4.361-2.139-7.57-6.254-7.57s-6.254 3.209-6.254 7.57c0 4.32 2.139 7.57 6.254 7.57zM72.472 1.127v29.417h4.32v-7.611l2.921-2.757 6.624 10.368h5.184l-8.846-13.207 7.982-7.817H85.35l-8.558 8.434V1.127h-4.32zM101.935 17.831c-3.045-.699-5.39-.864-5.39-3.003 0-1.481 1.399-2.469 3.991-2.469 3.374 0 4.197 1.687 4.485 3.333h4.197c-.288-3.662-3.003-6.747-8.722-6.747-5.266 0-8.311 2.757-8.311 6.213 0 4.773 4.526 5.431 7.858 6.213 3.086.741 5.595.946 5.595 3.579 0 1.317-1.275 2.798-4.279 2.798-4.443 0-5.431-1.934-5.637-4.197h-4.197c.206 4.443 3.127 7.611 9.915 7.611 5.102 0 8.558-2.51 8.558-6.542 0-5.019-4.197-5.883-8.064-6.789zM124.123 8.944c-3.538 0-5.719 1.646-6.83 3.291h-.082V1.126h-4.32v29.417h4.32V17.748c0-3.127 2.263-5.143 5.431-5.143 3.003 0 4.197 1.81 4.197 4.649v13.289h4.361V16.02c0-4.814-3.086-7.077-7.077-7.077zM144.448 27.623c-3.826 0-6.089-2.921-6.089-6.459h16.128c0-7.488-3.333-12.219-10.121-12.219-6.336 0-10.327 4.279-10.327 11.109 0 6.583 3.991 11.109 10.533 11.109 5.39 0 8.517-3.045 9.586-7.035h-4.32c-.37 1.275-1.81 3.497-5.39 3.497zm-.082-15.264c3.497 0 5.801 2.345 5.801 5.595h-11.808c0-3.25 2.51-5.595 6.007-5.595zM157.531 1.127v29.417h4.361V1.127h-4.361zM176.003 4.665V1.127a15.12 15.12 0 0 0-2.88-.288c-3.456 0-5.349 1.563-5.349 6.007V9.52h-3.003v3.538h3.003v17.486h4.361V13.058h3.867V9.52h-3.867V7.216c0-2.386 1.07-2.674 3.867-2.551z"/></symbol><symbol id="shopping-list-icon" viewBox="0 0 25 32"><path d="M22.815 8.592h-4.444V7.111a5.93 5.93 0 0 0-5.926-5.926 5.93 5.93 0 0 0-5.926 5.926v1.481H2.075a1.482 1.482 0 0 0-1.482 1.482V26.37a4.444 4.444 0 0 0 4.445 4.445h14.815a4.444 4.444 0 0 0 4.445-4.445V10.074a1.482 1.482 0 0 0-1.482-1.482zM9.481 7.111a2.962 2.962 0 0 1 5.058-2.095c.556.556.868 1.309.868 2.095v1.481H9.481V7.111zM21.333 26.37a1.478 1.478 0 0 1-1.481 1.481H5.037a1.482 1.482 0 0 1-1.482-1.481V11.555h2.963v1.481a1.482 1.482 0 1 0 2.964 0v-1.481h5.926v1.481a1.482 1.482 0 1 0 2.964 0v-1.481h2.963V26.37z"/></symbol><symbol id="caret-down" viewBox="0 0 28 32"><path fill="#fff" style="fill:var(--color1,#fff)" d="M5.898 12h16.513l-7.423 8.391c-.221.25-.521.39-.834.39s-.613-.14-.834-.39L5.898 12z"/></symbol></defs></svg>