<svg xmlns="http://www.w3.org/2000/svg" aria-hidden="true" style="position:absolute;width:0;height:0;overflow:hidden">
  <defs>
    <symbol id="icon-align-left" viewBox="0 0 32 32">
      <path stroke-linecap="round" stroke-linejoin="round" stroke-width="2.286" d="M22.667 13.333H4M28 8H4m24 10.667H4M22.667 24H4"/>
    </symbol>
    <symbol id="icon-Bookshelf" viewBox="0 0 178 32">
      <path d="M22.176 8.533c0-4.731-3.497-7.406-9.545-7.406H0v29.417h13.33c6.089 0 9.998-2.921 9.998-8.599 0-4.402-2.633-6.665-5.719-7.2v-.082c2.427-.823 4.567-2.51 4.567-6.13zm-17.28 4.772V5.282h7.858c2.921 0 4.526 1.44 4.526 4.032s-1.317 3.991-4.814 3.991h-7.57zm0 3.662h8.599c3.086 0 4.937 1.687 4.937 4.69 0 2.757-1.275 4.731-5.472 4.731H4.896v-9.422zM35.89 31.161c-6.583 0-10.574-4.567-10.574-11.109S29.307 8.943 35.89 8.943s10.574 4.567 10.574 11.109-3.991 11.109-10.574 11.109zm0-3.538c4.114 0 6.254-3.25 6.254-7.57 0-4.361-2.139-7.57-6.254-7.57s-6.254 3.209-6.254 7.57c0 4.32 2.139 7.57 6.254 7.57zm23.022 3.538c-6.583 0-10.574-4.567-10.574-11.109S52.329 8.943 58.912 8.943s10.574 4.567 10.574 11.109-3.991 11.109-10.574 11.109zm0-3.538c4.114 0 6.254-3.25 6.254-7.57 0-4.361-2.139-7.57-6.254-7.57s-6.254 3.209-6.254 7.57c0 4.32 2.139 7.57 6.254 7.57zm13.56-26.496v29.417h4.32v-7.611l2.921-2.757 6.624 10.368h5.184l-8.846-13.207 7.982-7.817H85.35l-8.558 8.434V1.127h-4.32zm29.463 16.704c-3.045-.699-5.39-.864-5.39-3.003 0-1.481 1.399-2.469 3.991-2.469 3.374 0 4.197 1.687 4.485 3.333h4.197c-.288-3.662-3.003-6.747-8.722-6.747-5.266 0-8.311 2.757-8.311 6.213 0 4.773 4.526 5.431 7.858 6.213 3.086.741 5.595.946 5.595 3.579 0 1.317-1.275 2.798-4.279 2.798-4.443 0-5.431-1.934-5.637-4.197h-4.197c.206 4.443 3.127 7.611 9.915 7.611 5.102 0 8.558-2.51 8.558-6.542 0-5.019-4.197-5.883-8.064-6.789zm22.188-8.887c-3.538 0-5.719 1.646-6.83 3.291h-.082V1.126h-4.32v29.417h4.32V17.748c0-3.127 2.263-5.143 5.431-5.143 3.003 0 4.197 1.81 4.197 4.649v13.289h4.361V16.02c0-4.814-3.086-7.077-7.077-7.077zm20.325 18.679c-3.826 0-6.089-2.921-6.089-6.459h16.128c0-7.488-3.333-12.219-10.121-12.219-6.336 0-10.327 4.279-10.327 11.109 0 6.583 3.991 11.109 10.533 11.109 5.39 0 8.517-3.045 9.586-7.035h-4.32c-.37 1.275-1.81 3.497-5.39 3.497zm-.082-15.264c3.497 0 5.801 2.345 5.801 5.595h-11.808c0-3.25 2.51-5.595 6.007-5.595zm13.165-11.232v29.417h4.361V1.127h-4.361zm18.472 3.538V1.127a15.12 15.12 0 0 0-2.88-.288c-3.456 0-5.349 1.563-5.349 6.007V9.52h-3.003v3.538h3.003v17.486h4.361V13.058h3.867V9.52h-3.867V7.216c0-2.386 1.07-2.674 3.867-2.551z"/>
    </symbol>
    <symbol id="icon-home" viewBox="0 0 68 32">
      <path fill="#eac645" d="M16 0h35.765c8.837 0 16 7.163 16 16s-7.163 16-16 16H16C7.163 32 0 24.837 0 16S7.163 0 16 0z" style="fill:var(--color1, #eac645)"/>
      <path fill="#111" d="M15.955 20.706v-9.224h1.687v3.834h4.137v-3.834h1.687v9.224h-1.687v-4.019h-4.137v4.019h-1.687zm13.098.158c-.922 0-1.731-.202-2.424-.606a4.374 4.374 0 0 1-1.621-1.673c-.387-.72-.58-1.55-.58-2.49s.193-1.766.58-2.477a4.342 4.342 0 0 1 1.621-1.687c.694-.404 1.502-.606 2.424-.606.913 0 1.717.202 2.411.606s1.234.966 1.621 1.687c.386.712.58 1.537.58 2.477s-.193 1.77-.58 2.49c-.387.712-.927 1.269-1.621 1.673s-1.498.606-2.411.606zm0-1.515c.878 0 1.577-.29 2.095-.87.527-.58.791-1.375.791-2.385s-.264-1.805-.791-2.385c-.518-.58-1.217-.87-2.095-.87s-1.581.29-2.108.87-.791 1.375-.791 2.385c0 1.01.264 1.805.791 2.385s1.23.87 2.108.87zm5.574 1.357v-9.224h2.003l2.938 5.85 2.899-5.85h2.003v9.224h-1.687v-6.364l-2.569 5.047h-1.331l-2.569-5.047v6.364h-1.687zm11.105 0v-9.224h6.022v1.357h-4.335v2.53h3.94v1.318h-3.94v2.662h4.335v1.357h-6.022z" style="fill:var(--color2, #111)"/>
    </symbol>
    <symbol id="icon-logo" viewBox="0 0 32 32">
      <path fill="#f6f6f6" d="m0 0 16.343 16.171L32 32V0H0z" style="fill:var(--color3, #f6f6f6)"/>
      <path fill="#f6f6f6" d="M4.457 4.229 16.4 16.058l11.257 11.486h-23.2V4.23z" style="fill:var(--color3, #f6f6f6)"/>
      <path fill="#4f2ee8" d="M27.733 27.618 15.79 15.789 4.533 4.303h23.2v23.314z" style="fill:var(--color4, #4f2ee8)"/>
      <path fill="#4f2ee8" d="m9.257 9.029 13.6 13.6h-13.6v-13.6z" style="fill:var(--color4, #4f2ee8)"/>
      <path fill="#f6f6f6" d="m9.257 9.029 13.6 13.6v-13.6h-13.6z" style="fill:var(--color3, #f6f6f6)"/>
    </symbol>
    <symbol id="icon-Rectangle-5" viewBox="0 0 131 32">
      <path fill="#4f2ee8" d="M16 0h98.844c8.837 0 16 7.163 16 16s-7.163 16-16 16H16C7.163 32 0 24.837 0 16S7.163 0 16 0z" style="fill:var(--color4, #4f2ee8)"/>
    </symbol>
    <symbol id="icon-uil_cart" viewBox="0 0 32 32">
      <path d="M25.333 9.333h-4V8a5.332 5.332 0 1 0-10.666 0v1.333h-4a1.335 1.335 0 0 0-1.334 1.334v14.667a4.003 4.003 0 0 0 4 4h13.333a4.003 4.003 0 0 0 4-4V10.667a1.335 1.335 0 0 0-1.334-1.334zM13.333 8a2.668 2.668 0 0 1 5.334 0v1.333h-5.333V8zM24 25.333a1.335 1.335 0 0 1-1.334 1.334H9.333a1.335 1.335 0 0 1-1.334-1.334V12h2.667v1.333a1.335 1.335 0 0 0 2.277.943c.25-.251.391-.589.391-.943V12h5.333v1.333a1.333 1.333 0 1 0 2.667 0V12h2.667v13.333z"/>
    </symbol>
    <symbol id="icon-x-close" viewBox="0 0 32 32">
      <path stroke-linecap="round" stroke-linejoin="round" stroke-width="3.429" d="M24 8 8 24M8 8l16 16"/>
    </symbol>
    <symbol id="icon-menu-hamburger-1" viewBox="0 0 47 32">
      <path stroke-linecap="round" stroke-linejoin="round" stroke-width="4.364" d="M1.96 29.154h42.965M1.96 15.615h42.965M1.96 2.077h42.965"/>
    </symbol>
    <symbol id="icon-logo-header" viewBox="0 0 32 32">
      <path fill="#f6f6f6" d="m0 0 16.347 16.177L32.009 32.01V.001H0z" style="fill:var(--color3, #f6f6f6)"/>
      <path fill="#f6f6f6" d="m4.459 4.229 11.946 11.833 11.261 11.489H4.459V4.23z" style="fill:var(--color3, #f6f6f6)"/>
      <path fill="#4f2ee8" d="M27.741 27.627 15.794 15.794 4.535 4.305h23.207v23.321z" style="fill:var(--color4, #4f2ee8)"/>
      <path fill="#4f2ee8" d="m9.26 9.031 13.604 13.605H9.26V9.032z" style="fill:var(--color4, #4f2ee8)"/>
      <path fill="#f6f6f6" d="m9.26 9.031 13.604 13.605V9.032H9.26z" style="fill:var(--color3, #f6f6f6)"/>
    </symbol>
  </defs>
</svg>
