<svg xmlns="http://www.w3.org/2000/svg" aria-hidden="true" style="position:absolute;width:0;height:0;overflow:hidden">
  <defs>
    <symbol id="icon-arrow" viewBox="0 0 32 32">
      <path fill="#fff" d="M4.5 19.6 15.7 8.367c.133-.133.278-.228.433-.283s.322-.084.5-.084.345.028.5.084.3.149.433.283L28.799 19.6c.311.311.467.7.467 1.167s-.167.867-.5 1.2c-.333.333-.722.5-1.167.5s-.833-.167-1.167-.5l-9.8-9.8-9.8 9.8c-.311.311-.694.467-1.149.467s-.851-.167-1.184-.5-.5-.722-.5-1.167c0-.444.167-.833.5-1.167z" style="fill:var(--color1, #fff)"/>
    </symbol>
    <symbol id="icon-Logotype-plug-4" viewBox="0 0 34 32">
      <path fill="#4f2ee8" d="M32.716 8.869a15.813 15.813 0 0 0-2.24-.953v18.801a15.321 15.321 0 0 0-5.333-.969c-2.895 0-5.76.844-8.381 2.469V9.306c-2.469-1.454-5.318-2.313-8.381-2.313-2.728 0-5.303.688-7.573 1.875-.503.25-.808.797-.808 1.375v18.88c0 .906.716 1.547 1.524 1.547.244 0 .488-.063.731-.188 1.844-.985 3.916-1.61 6.126-1.61 3.154 0 6.065 1.282 8.381 3.126 2.316-1.844 5.227-3.126 8.381-3.126 2.21 0 4.282.625 6.126 1.625.244.125.488.188.731.188.792 0 1.524-.641 1.524-1.547V10.243c0-.578-.305-1.125-.808-1.375zM13.714 26.717c-1.737-.641-3.52-.969-5.333-.969s-3.596.328-5.333.969V11.229a13.263 13.263 0 0 1 5.333-1.11c1.829 0 3.642.391 5.333 1.125v15.473zM27.429 1.524 19.81 9.338v14.847l7.619-7.033V1.523z" style="fill:var(--color2, #4f2ee8)"/>
    </symbol>
    <symbol id="icon-plug-3" viewBox="0 0 22 32">
      <path fill="#fff" d="M.81 0h20.456a.81.81 0 0 1 .81.81v30.38a.81.81 0 0 1-.81.81H.81a.81.81 0 0 1-.81-.81V.81A.81.81 0 0 1 .81 0z" style="fill:var(--color1, #fff)"/>
      <path fill="#4f2ee8" d="M13.93 14.786a2.974 2.974 0 0 0-.406-.171v3.374a2.804 2.804 0 0 0-.967-.174 2.89 2.89 0 0 0-1.519.443v-3.393a2.984 2.984 0 0 0-2.892-.079.274.274 0 0 0-.146.247v3.388a.275.275 0 0 0 .409.244c.334-.177.71-.289 1.11-.289.572 0 1.099.23 1.519.561.42-.331.947-.561 1.519-.561.4 0 .776.112 1.11.292a.276.276 0 0 0 .409-.244v-3.39a.274.274 0 0 0-.146-.247zm-3.444 3.203c-.315-.115-.638-.174-.967-.174s-.652.059-.967.174V15.21a2.426 2.426 0 0 1 1.934.003v2.776zm2.485-4.521L11.59 14.87v2.664l1.381-1.262v-2.804z" style="fill:var(--color2, #4f2ee8)"/>
    </symbol>
    <symbol id="icon-plug-1" viewBox="0 0 30 32">
      <path fill="#4f2ee8" d="M29.392 10.57a13.954 13.954 0 0 0-2.012-.883v17.419a13.392 13.392 0 0 0-4.791-.898c-2.601 0-5.175.782-7.529 2.288v-17.52c-2.218-1.347-4.778-2.143-7.529-2.143-2.45 0-4.764.637-6.804 1.738-.452.232-.726.738-.726 1.274v17.491c0 .84.643 1.433 1.369 1.433.219 0 .438-.058.657-.174 1.656-.912 3.518-1.491 5.503-1.491 2.834 0 5.449 1.187 7.529 2.896 2.081-1.709 4.696-2.896 7.529-2.896 1.985 0 3.847.579 5.503 1.506.219.116.438.174.657.174.712 0 1.369-.594 1.369-1.433V11.845c0-.536-.274-1.043-.726-1.274zM12.321 27.106c-1.561-.594-3.162-.898-4.791-.898s-3.231.304-4.791.898V12.757a11.624 11.624 0 0 1 4.791-1.028c1.643 0 3.272.362 4.791 1.043v14.335zM24.642 3.765l-6.845 7.24v13.756l6.845-6.516V3.765z" style="fill:var(--color2, #4f2ee8)"/>
    </symbol>
    <symbol id="icon-plug-2" viewBox="0 0 32 32">
      <path fill="#4f2ee8" d="M31.229 9.921a15.221 15.221 0 0 0-2.138-.91v17.947A14.622 14.622 0 0 0 24 26.033c-2.764 0-5.498.806-8 2.357V10.339c-2.356-1.387-5.076-2.208-8-2.208-2.604 0-5.062.656-7.229 1.79-.48.239-.771.761-.771 1.313v18.021c0 .865.684 1.477 1.455 1.477.233 0 .465-.06.698-.179 1.76-.94 3.738-1.537 5.847-1.537 3.011 0 5.789 1.223 8 2.984 2.211-1.76 4.989-2.984 8-2.984 2.109 0 4.087.597 5.847 1.552.233.119.465.179.698.179.756 0 1.455-.612 1.455-1.477V11.234c0-.552-.291-1.074-.771-1.313zM13.091 26.958c-1.658-.612-3.36-.925-5.091-.925s-3.433.313-5.091.925V12.174a12.672 12.672 0 0 1 10.182.015v14.769zM26.182 2.909l-7.273 7.459V24.54l7.273-6.713V2.909z" style="fill:var(--color2, #4f2ee8)"/>
    </symbol>
    <symbol id="icon-logo-dark" viewBox="0 0 32 32">
      <path fill="#f6f6f6" d="m0 0 16.343 16.171L32 32V0H0z" style="fill:var(--color3, #f6f6f6)"/>
      <path fill="#f6f6f6" d="M4.457 4.229 16.4 16.058l11.257 11.486h-23.2V4.23z" style="fill:var(--color3, #f6f6f6)"/>
      <path fill="#4f2ee8" d="M27.733 27.618 15.79 15.789 4.533 4.303h23.2v23.314z" style="fill:var(--color2, #4f2ee8)"/>
      <path fill="#4f2ee8" d="m9.257 9.029 13.6 13.6h-13.6v-13.6z" style="fill:var(--color2, #4f2ee8)"/>
      <path fill="#f6f6f6" d="m9.257 9.029 13.6 13.6v-13.6h-13.6z" style="fill:var(--color3, #f6f6f6)"/>
    </symbol>
    <symbol id="icon-logo-light" viewBox="0 0 32 32">
      <path fill="#f6f6f6" d="m0 0 16.343 16.171L32 32V0H0z" style="fill:var(--color3, #f6f6f6)"/>
      <path fill="#f6f6f6" d="M4.457 4.229 16.4 16.058l11.257 11.486h-23.2V4.23z" style="fill:var(--color3, #f6f6f6)"/>
      <path fill="#4f2ee8" d="M27.733 27.618 15.79 15.789 4.533 4.303h23.2v23.314z" style="fill:var(--color2, #4f2ee8)"/>
      <path fill="#4f2ee8" d="m9.257 9.029 13.6 13.6h-13.6v-13.6z" style="fill:var(--color2, #4f2ee8)"/>
      <path fill="#f6f6f6" d="m9.257 9.029 13.6 13.6v-13.6h-13.6z" style="fill:var(--color3, #f6f6f6)"/>
    </symbol>
    <symbol id="icon-knob" viewBox="0 0 32 32">
      <path d="M14.769 24.615c6.118 0 11.077-4.959 11.077-11.077S20.887 2.461 14.769 2.461 3.692 7.42 3.692 13.538s4.959 11.077 11.077 11.077z"/>
    </symbol>
    <symbol id="icon-trash-03" viewBox="0 0 32 32">
      <path fill="none" stroke="#fff" stroke-linecap="round" stroke-linejoin="round" stroke-width="2.909" d="M12 4h8M4 8h24m-2.667 0-.935 14.026c-.14 2.104-.21 3.157-.665 3.954a4 4 0 0 1-1.731 1.619c-.826.4-1.881.4-3.99.4h-4.025c-2.109 0-3.163 0-3.99-.4a4.005 4.005 0 0 1-1.731-1.619c-.455-.798-.525-1.85-.665-3.954L6.666 8m6.667 6v6.667M18.667 14v6.667" style="stroke:var(--color1, #fff)"/>
    </symbol>
    <symbol id="icon-user" viewBox="0 0 32 32">
      <path fill="#f6f6f6" d="M32 16c0 8.837-7.163 16-16 16S0 24.837 0 16 7.163 0 16 0s16 7.163 16 16z" style="fill:var(--color3, #f6f6f6)"/>
      <path fill="#4f2ee8" d="M10.523 22.847a5.477 5.477 0 1 1 10.954 0H10.522zM16 16.685c-2.27 0-4.108-1.838-4.108-4.108S13.73 8.469 16 8.469c2.27 0 4.108 1.838 4.108 4.108S18.27 16.685 16 16.685z" style="fill:var(--color2, #4f2ee8)"/>
    </symbol>
    <symbol id="icon-Switcher-3" viewBox="0 0 52 32">
      <path d="M0 14.222C0 7.676 5.306 2.37 11.852 2.37h23.704c6.546 0 11.852 5.306 11.852 11.852s-5.306 11.852-11.852 11.852H11.852C5.306 26.074 0 20.768 0 14.222z"/>
      <path d="M35.556 24.889c5.891 0 10.667-4.776 10.667-10.667S41.447 3.555 35.556 3.555 24.889 8.331 24.889 14.222s4.776 10.667 10.667 10.667z"/>
    </symbol>
    <symbol id="icon-Switcher-2" viewBox="0 0 50 32">
      <path d="M2.37 14.222C2.37 7.676 7.676 2.37 14.222 2.37h23.704c6.546 0 11.852 5.306 11.852 11.852s-5.306 11.852-11.852 11.852H14.222c-6.546 0-11.852-5.306-11.852-11.852z"/>
      <path d="M14.222 24.889c5.891 0 10.667-4.776 10.667-10.667S20.113 3.555 14.222 3.555 3.555 8.331 3.555 14.222s4.776 10.667 10.667 10.667z"/>
    </symbol>
    <symbol id="icon-align-left" viewBox="0 0 32 32">
      <path stroke-linecap="round" stroke-linejoin="round" stroke-width="2.286" d="M22.667 13.333H4M28 8H4m24 10.667H4M22.667 24H4"/>
    </symbol>
    <symbol id="icon-x-close" viewBox="0 0 32 32">
      <path stroke-linecap="round" stroke-linejoin="round" stroke-width="3.429" d="M24 8 8 24M8 8l16 16"/>
    </symbol>
    <symbol id="icon-lock-02" viewBox="0 0 32 32">
      <path stroke-linecap="round" stroke-linejoin="round" stroke-width="2.286" d="M22.667 14.667v-4a6.667 6.667 0 0 0-13.334 0v4M10.4 28h11.2c2.24 0 3.36 0 4.216-.436a3.991 3.991 0 0 0 1.748-1.748C28 24.96 28 23.84 28 21.6v-.533c0-2.24 0-3.36-.436-4.216a3.991 3.991 0 0 0-1.748-1.748c-.856-.436-1.976-.436-4.216-.436H10.4c-2.24 0-3.36 0-4.216.436a3.996 3.996 0 0 0-1.748 1.748C4 17.707 4 18.827 4 21.067v.533c0 2.24 0 3.36.436 4.216a3.991 3.991 0 0 0 1.748 1.748C7.04 28 8.16 28 10.4 28z"/>
    </symbol>
    <symbol id="icon-mail-02" viewBox="0 0 32 32">
      <path stroke-linecap="round" stroke-linejoin="round" stroke-width="2.286" d="m28.666 24-8.857-8m-7.619 0-8.857 8M2.667 9.333l10.887 7.621c.882.617 1.322.926 1.802 1.045.423.106.866.106 1.29 0 .479-.12.92-.428 1.802-1.045l10.887-7.621M9.067 26.667h13.867c2.24 0 3.36 0 4.216-.436a3.996 3.996 0 0 0 1.748-1.748c.436-.856.436-1.976.436-4.216v-8.533c0-2.24 0-3.36-.436-4.216A3.991 3.991 0 0 0 27.15 5.77c-.856-.436-1.976-.436-4.216-.436H9.067c-2.24 0-3.36 0-4.216.436a3.991 3.991 0 0 0-1.748 1.748c-.436.856-.436 1.976-.436 4.216v8.533c0 2.24 0 3.36.436 4.216a3.996 3.996 0 0 0 1.748 1.748c.856.436 1.976.436 4.216.436z"/>
    </symbol>
  </defs>
</svg>
