<svg aria-hidden="true" style="position: absolute; width: 0; height: 0; overflow: hidden;" version="1.1" xmlns="http://www.w3.org/2000/svg" xmlns:xlink="http://www.w3.org/1999/xlink">
<defs>
<symbol id="unkraine-emblem" viewBox="0 0 20 32">
<path fill="#fff" style="fill: var(--color1, #fff)" d="M9.005 30.888c-1.738-1.262-2.991-3.156-3.414-5.351h-5.591v-23.117c2.991 1.443 5.153 4.599 5.388 7.876l0.846 6.493-0.407-0.045c-0.893 0-1.676 0.812-1.676 1.608 0 0.752 0.595 1.383 1.378 1.548l1.018 0.226c1.676-3.051 2.631-6.042 2.631-8.973 0-2.645-0.36-5.291-0.423-7.996 0-1.202 0.486-2.3 1.253-3.156 0.783 0.857 1.253 1.954 1.253 3.156 0 2.705-0.423 5.351-0.423 7.996 0 2.931 0.955 5.922 2.631 8.973l1.018-0.226c0.783-0.165 1.378-0.812 1.378-1.548 0-0.812-0.783-1.608-1.676-1.608l-0.423 0.060 0.846-6.493c0.423-3.277 2.396-6.448 5.388-7.876v23.117h-5.576c-0.423 2.179-1.613 4.148-3.414 5.351-0.423 0.286-0.783 0.631-1.018 1.097-0.219-0.466-0.579-0.812-0.987-1.112zM2.647 17.556c0.235-0.857 0.893-1.608 1.738-2.074l-0.658-5.351c-0.235-1.668-0.955-3.156-2.036-4.374v11.784h0.955v0.015zM5.466 23.929c0-0.812 0.125-1.548 0.298-2.3l-0.783-0.18c-1.143-0.346-2.036-1.203-2.334-2.3h-0.955v4.78h3.774zM9.178 23.929c0-0.977-0.783-1.834-1.801-1.954-0.172 0.631-0.298 1.263-0.298 1.954h2.099zM9.178 25.552h-1.864c0.298 1.263 0.955 2.42 1.864 3.397v-3.397zM11.809 20.547c-0.72-1.262-1.378-2.585-1.801-3.968-0.423 1.383-1.081 2.706-1.801 3.968 0.72 0.165 1.316 0.631 1.801 1.157 0.486-0.526 1.081-0.992 1.801-1.157zM12.952 23.929c0-0.691-0.125-1.323-0.297-1.954-1.018 0.12-1.801 0.977-1.801 1.954h2.099zM12.717 25.552h-1.864v3.397c0.908-0.992 1.566-2.134 1.864-3.397zM18.34 23.929v-4.78h-0.955c-0.298 1.097-1.206 1.954-2.334 2.3l-0.783 0.18c0.172 0.752 0.298 1.488 0.298 2.3h3.774zM18.34 17.556v-11.799c-1.081 1.202-1.864 2.706-2.036 4.374l-0.658 5.351c0.846 0.466 1.504 1.203 1.739 2.074h0.955z"></path>
</symbol>
<symbol id="mail-icon" viewBox="0 0 32 32">
<path d="M9.067 4.19c-2.24 0-3.519-0.059-4.734 0.56-0.968 0.493-1.755 1.28-2.248 2.248-0.619 1.215-0.56 2.496-0.56 4.737v8.533c0 2.24-0.059 3.519 0.56 4.734 0.493 0.968 1.28 1.755 2.248 2.248 1.215 0.619 2.494 0.56 4.734 0.56h13.866c2.24 0 3.519 0.059 4.734-0.56 0.967-0.493 1.755-1.28 2.248-2.248 0.619-1.215 0.56-2.494 0.56-4.734v-8.533c0-0.875-0.010-1.514-0.036-2.15 0.017-0.075 0.027-0.16 0.027-0.248 0-0.105-0.014-0.206-0.040-0.302l0.002 0.008c-0.061-0.774-0.197-1.424-0.513-2.045-0.493-0.968-1.28-1.755-2.248-2.248-1.215-0.619-2.494-0.56-4.734-0.56zM9.067 6.475h13.866c2.24 0 3.2 0.060 3.696 0.313 0.538 0.274 0.976 0.71 1.25 1.248 0.059 0.117 0.034 0.692 0.074 0.871l-10.163 7.112c-0.881 0.617-1.231 0.825-1.422 0.873-0.242 0.060-0.495 0.060-0.737 0-0.191-0.048-0.543-0.256-1.424-0.873l-10.161-7.112c0.040-0.179 0.014-0.754 0.074-0.871 0.274-0.538 0.712-0.974 1.25-1.248 0.496-0.253 1.456-0.313 3.696-0.313zM3.826 11.54l6.533 4.574-6.411 5.79c-0.035-0.561-0.138-0.645-0.138-1.636v-8.533c0-0.118 0.015-0.084 0.016-0.194zM28.174 11.54c0 0.111 0.016 0.077 0.016 0.194v8.533c0 0.992-0.104 1.075-0.138 1.636l-6.411-5.79zM12.279 17.458l0.618 0.433c0.882 0.617 1.413 1.025 2.181 1.217 0.605 0.151 1.239 0.151 1.844 0 0.768-0.191 1.299-0.599 2.181-1.217l0.616-0.431 7.705 6.96c-0.244 0.29-0.453 0.618-0.795 0.792-0.496 0.253-1.456 0.313-3.696 0.313h-13.866c-2.24 0-3.2-0.060-3.696-0.313-0.342-0.174-0.55-0.503-0.795-0.792z"></path>
</symbol>
<symbol id="lock-icon" viewBox="0 0 32 32">
<path d="M16 2.857c-4.3 0-7.81 3.511-7.81 7.81v2.895c-0.966 0.043-1.797 0.152-2.525 0.522-0.967 0.493-1.755 1.28-2.248 2.248-0.619 1.215-0.56 2.494-0.56 4.734v0.533c0 2.24-0.059 3.519 0.56 4.734 0.493 0.967 1.28 1.755 2.248 2.248 1.215 0.619 2.494 0.56 4.734 0.56h11.201c2.24 0 3.519 0.059 4.734-0.56 0.968-0.493 1.755-1.28 2.248-2.248 0.619-1.215 0.56-2.494 0.56-4.734v-0.533c0-2.24 0.059-3.519-0.56-4.734-0.493-0.968-1.28-1.755-2.248-2.248-0.727-0.371-1.559-0.479-2.525-0.522v-2.895c0-4.3-3.511-7.81-7.81-7.81zM16 5.143c3.064 0 5.525 2.46 5.525 5.525v2.857h-11.049v-2.857c0-3.064 2.46-5.525 5.525-5.525zM10.4 15.81h11.201c2.24 0 3.2 0.057 3.696 0.31 0.538 0.274 0.974 0.712 1.248 1.25 0.253 0.496 0.313 1.456 0.313 3.696v0.533c0 2.24-0.060 3.2-0.313 3.696-0.274 0.538-0.71 0.974-1.248 1.248-0.496 0.253-1.456 0.313-3.696 0.313h-11.201c-2.24 0-3.2-0.060-3.696-0.313-0.538-0.274-0.974-0.71-1.248-1.248-0.253-0.496-0.313-1.456-0.313-3.696v-0.533c0-2.24 0.060-3.2 0.313-3.696 0.274-0.538 0.71-0.976 1.248-1.25 0.496-0.253 1.456-0.31 3.696-0.31z"></path>
</symbol>
<symbol id="close-icon" viewBox="0 0 32 32">
<path d="M8 6.286c-0.473 0-0.902 0.192-1.212 0.502v0c-0.31 0.31-0.502 0.739-0.502 1.212s0.192 0.902 0.502 1.212l6.788 6.788-6.788 6.788c-0.31 0.31-0.502 0.739-0.502 1.212s0.192 0.902 0.502 1.212v0c0.31 0.31 0.739 0.502 1.212 0.502s0.902-0.192 1.212-0.502l6.788-6.788 6.788 6.788c0.31 0.31 0.739 0.502 1.212 0.502s0.902-0.192 1.212-0.502v0c0.31-0.31 0.502-0.739 0.502-1.212s-0.192-0.902-0.502-1.212l-6.788-6.788 6.788-6.788c0.31-0.31 0.502-0.739 0.502-1.212s-0.192-0.902-0.502-1.212v0c-0.31-0.31-0.739-0.502-1.212-0.502s-0.902 0.192-1.212 0.502l-6.788 6.788-6.788-6.788c-0.31-0.31-0.739-0.502-1.212-0.502v0z"></path>
</symbol>
<symbol id="burger-nemu-icon" viewBox="0 0 32 32">
<path d="M4 12.19c-0.631 0-1.143 0.512-1.143 1.143v0c0 0.631 0.512 1.143 1.143 1.143v0h18.667c0.631 0 1.143-0.512 1.143-1.143v0c0-0.631-0.512-1.143-1.143-1.143v0z"></path>
<path d="M4 6.857c-0.631 0-1.143 0.512-1.143 1.143v0c0 0.631 0.512 1.143 1.143 1.143v0h24c0.631 0 1.143-0.512 1.143-1.143v0c0-0.631-0.512-1.143-1.143-1.143v0z"></path>
<path d="M4 17.525c-0.631 0-1.143 0.512-1.143 1.143v0c0 0.631 0.512 1.143 1.143 1.143v0h24c0.631 0 1.143-0.512 1.143-1.143v0c0-0.631-0.512-1.143-1.143-1.143v0z"></path>
<path d="M4 22.857c-0.631 0-1.143 0.512-1.143 1.143v0c0 0.631 0.512 1.143 1.143 1.143v0h18.667c0.631 0 1.143-0.512 1.143-1.143v0c0-0.631-0.512-1.143-1.143-1.143v0z"></path>
</symbol>
<symbol id="trash-icon" viewBox="0 0 32 32">
<path fill="#fff" style="fill: var(--color1, #fff)" d="M12 2.545c-0.803 0-1.455 0.651-1.455 1.455v0c0 0.803 0.651 1.455 1.455 1.455v0h8c0.803 0 1.455-0.651 1.455-1.455v0c0-0.803-0.651-1.455-1.455-1.455v0zM4 6.545c-0.803 0-1.455 0.651-1.455 1.455v0c0 0.803 0.651 1.455 1.455 1.455v0h1.307l0.844 12.668c0.14 2.104 0.157 3.357 0.852 4.577 0.546 0.957 1.369 1.73 2.361 2.21 1.263 0.612 2.516 0.545 4.625 0.545h4.023c2.109 0 3.362 0.067 4.625-0.545 0.992-0.481 1.815-1.253 2.361-2.21 0.695-1.22 0.712-2.472 0.852-4.577l0.844-12.668h1.307c0.803 0 1.455-0.651 1.455-1.455v0c0-0.803-0.651-1.455-1.455-1.455v0zM8.222 9.455h15.557l-0.832 12.474c-0.14 2.104-0.263 2.956-0.477 3.332-0.255 0.447-0.639 0.804-1.102 1.028-0.389 0.189-1.246 0.256-3.355 0.256h-4.023c-2.109 0-2.966-0.067-3.355-0.256-0.463-0.224-0.848-0.581-1.102-1.028-0.214-0.376-0.337-1.228-0.477-3.332zM13.332 12.545c-0.803 0-1.455 0.651-1.455 1.455v0 6.668c0 0.803 0.651 1.455 1.455 1.455v0c0.803 0 1.455-0.651 1.455-1.455v-6.668c0-0.803-0.651-1.455-1.455-1.455v0zM18.668 12.545c-0.803 0-1.455 0.651-1.455 1.455v0 6.668c0 0.803 0.651 1.455 1.455 1.455v0c0.803 0 1.455-0.651 1.455-1.455v0-6.668c0-0.803-0.651-1.455-1.455-1.455v0z"></path>
</symbol>
<symbol id="user-icon" viewBox="0 0 32 32">
<path fill="#4f2ee8" style="fill: var(--color2, #4f2ee8)" d="M5.333 29.333c0-2.829 1.124-5.542 3.124-7.543s4.713-3.124 7.542-3.124c2.829 0 5.542 1.124 7.542 3.124s3.124 4.714 3.124 7.543h-21.333zM16 17.333c-4.42 0-8-3.58-8-8s3.58-8 8-8c4.42 0 8 3.58 8 8s-3.58 8-8 8z"></path>
</symbol>
<symbol id="scroll-up-arrow" viewBox="0 0 32 32">
<path d="M4.5 19.6l11.2-11.233c0.133-0.133 0.278-0.228 0.433-0.283s0.322-0.084 0.5-0.084c0.178 0 0.345 0.028 0.5 0.084s0.3 0.149 0.433 0.283l11.233 11.233c0.311 0.311 0.467 0.7 0.467 1.167s-0.167 0.867-0.5 1.2c-0.333 0.333-0.722 0.5-1.167 0.5s-0.833-0.167-1.167-0.5l-9.8-9.8-9.8 9.8c-0.311 0.311-0.694 0.467-1.149 0.467s-0.851-0.167-1.184-0.5-0.5-0.722-0.5-1.167c0-0.444 0.167-0.833 0.5-1.167z"></path>
</symbol>
<symbol id="arrow-right-login" viewBox="0 0 32 32">
<path fill="#eac645" style="fill: var(--color3, #eac645)" d="M18.666 6.4c-0.442 0-0.842 0.179-1.131 0.469v0c-0.289 0.29-0.468 0.689-0.468 1.131s0.179 0.842 0.468 1.131l5.269 5.269h-17.469c-0.884 0-1.6 0.716-1.6 1.6v0c0 0.884 0.716 1.6 1.6 1.6v0h17.469l-5.269 5.269c-0.289 0.29-0.468 0.689-0.468 1.131s0.179 0.842 0.468 1.131v0c0.29 0.289 0.689 0.468 1.131 0.468s0.842-0.179 1.131-0.468l8-8c0.193-0.192 0.338-0.434 0.413-0.704l0.003-0.011c0.004-0.043 0.006-0.093 0.006-0.144s-0.002-0.101-0.007-0.15l0 0.006c0.015-0.032 0.033-0.074 0.049-0.117l0.004-0.011c-0.012-0.1-0.030-0.19-0.056-0.277l0.003 0.011c-0.010-0.087-0.026-0.164-0.046-0.239l0.003 0.011c-0.077-0.249-0.205-0.463-0.372-0.638l0.001 0.001-8-8c-0.29-0.29-0.689-0.469-1.131-0.469v0z"></path>
</symbol>
<symbol id="logo" viewBox="0 0 32 32">
<path fill="#f6f6f6" style="fill: var(--color4, #f6f6f6)" d="M0 0l16.343 16.171 15.657 15.829v-32h-32z"></path>
<path fill="#f6f6f6" style="fill: var(--color4, #f6f6f6)" d="M4.457 4.229l11.943 11.829 11.257 11.486h-23.2v-23.314z"></path>
<path fill="#4f2ee8" style="fill: var(--color2, #4f2ee8)" d="M27.733 27.618l-11.943-11.829-11.257-11.486h23.2v23.314z"></path>
<path fill="#4f2ee8" style="fill: var(--color2, #4f2ee8)" d="M9.257 9.029l13.6 13.6h-13.6v-13.6z"></path>
<path fill="#f6f6f6" style="fill: var(--color4, #f6f6f6)" d="M9.257 9.029l13.6 13.6v-13.6h-13.6z"></path>
</symbol>
<symbol id="logo-text" viewBox="0 0 178 32">
<path d="M22.176 8.533c0-4.731-3.497-7.406-9.545-7.406h-12.631v29.417h13.33c6.089 0 9.998-2.921 9.998-8.599 0-4.402-2.633-6.665-5.719-7.2v-0.082c2.427-0.823 4.567-2.51 4.567-6.13zM4.896 13.305v-8.023h7.858c2.921 0 4.526 1.44 4.526 4.032s-1.317 3.991-4.814 3.991h-7.57zM4.896 16.967h8.599c3.086 0 4.937 1.687 4.937 4.69 0 2.757-1.275 4.731-5.472 4.731h-8.064v-9.422z"></path>
<path d="M35.89 31.161c-6.583 0-10.574-4.567-10.574-11.109s3.991-11.109 10.574-11.109c6.583 0 10.574 4.567 10.574 11.109s-3.991 11.109-10.574 11.109zM35.89 27.623c4.114 0 6.254-3.25 6.254-7.57 0-4.361-2.139-7.57-6.254-7.57s-6.254 3.209-6.254 7.57c0 4.32 2.139 7.57 6.254 7.57z"></path>
<path d="M58.912 31.161c-6.583 0-10.574-4.567-10.574-11.109s3.991-11.109 10.574-11.109c6.583 0 10.574 4.567 10.574 11.109s-3.991 11.109-10.574 11.109zM58.912 27.623c4.114 0 6.254-3.25 6.254-7.57 0-4.361-2.139-7.57-6.254-7.57s-6.254 3.209-6.254 7.57c0 4.32 2.139 7.57 6.254 7.57z"></path>
<path d="M72.472 1.127v29.417h4.32v-7.611l2.921-2.757 6.624 10.368h5.184l-8.846-13.207 7.982-7.817h-5.307l-8.558 8.434v-16.827h-4.32z"></path>
<path d="M101.935 17.831c-3.045-0.699-5.39-0.864-5.39-3.003 0-1.481 1.399-2.469 3.991-2.469 3.374 0 4.197 1.687 4.485 3.333h4.197c-0.288-3.662-3.003-6.747-8.722-6.747-5.266 0-8.311 2.757-8.311 6.213 0 4.773 4.526 5.431 7.858 6.213 3.086 0.741 5.595 0.946 5.595 3.579 0 1.317-1.275 2.798-4.279 2.798-4.443 0-5.431-1.934-5.637-4.197h-4.197c0.206 4.443 3.127 7.611 9.915 7.611 5.102 0 8.558-2.51 8.558-6.542 0-5.019-4.197-5.883-8.064-6.789z"></path>
<path d="M124.123 8.944c-3.538 0-5.719 1.646-6.83 3.291h-0.082v-11.109h-4.32v29.417h4.32v-12.795c0-3.127 2.263-5.143 5.431-5.143 3.003 0 4.197 1.81 4.197 4.649v13.289h4.361v-14.523c0-4.814-3.086-7.077-7.077-7.077z"></path>
<path d="M144.448 27.623c-3.826 0-6.089-2.921-6.089-6.459h16.128c0-7.488-3.333-12.219-10.121-12.219-6.336 0-10.327 4.279-10.327 11.109 0 6.583 3.991 11.109 10.533 11.109 5.39 0 8.517-3.045 9.586-7.035h-4.32c-0.37 1.275-1.81 3.497-5.39 3.497zM144.366 12.359c3.497 0 5.801 2.345 5.801 5.595h-11.808c0-3.25 2.51-5.595 6.007-5.595z"></path>
<path d="M157.531 1.127v29.417h4.361v-29.417h-4.361z"></path>
<path d="M176.003 4.665v-3.538c-0.864-0.165-1.81-0.288-2.88-0.288-3.456 0-5.349 1.563-5.349 6.007v2.674h-3.003v3.538h3.003v17.486h4.361v-17.486h3.867v-3.538h-3.867v-2.304c0-2.386 1.070-2.674 3.867-2.551z"></path>
</symbol>
<symbol id="shopping-list-icon" viewBox="0 0 25 32">
<path d="M22.815 8.592h-4.444v-1.481c0-1.572-0.624-3.079-1.736-4.19s-2.619-1.736-4.19-1.736c-1.572 0-3.079 0.624-4.19 1.736s-1.736 2.619-1.736 4.19v1.481h-4.444c-0.393 0-0.77 0.156-1.048 0.434s-0.434 0.655-0.434 1.048v16.296c0 1.179 0.468 2.309 1.302 3.143s1.964 1.302 3.143 1.302h14.815c1.179 0 2.309-0.468 3.143-1.302s1.302-1.964 1.302-3.143v-16.296c0-0.393-0.156-0.77-0.434-1.048s-0.655-0.434-1.048-0.434zM9.481 7.111c0-0.786 0.312-1.539 0.868-2.095s1.309-0.868 2.095-0.868c0.786 0 1.539 0.312 2.095 0.868s0.868 1.309 0.868 2.095v1.481h-5.926v-1.481zM21.333 26.37c0 0.393-0.156 0.77-0.434 1.047s-0.655 0.434-1.047 0.434h-14.815c-0.393 0-0.77-0.156-1.048-0.434s-0.434-0.655-0.434-1.047v-14.815h2.963v1.481c0 0.393 0.156 0.77 0.434 1.048s0.655 0.434 1.048 0.434c0.393 0 0.77-0.156 1.048-0.434s0.434-0.655 0.434-1.048v-1.481h5.926v1.481c0 0.393 0.156 0.77 0.434 1.048s0.655 0.434 1.048 0.434c0.393 0 0.77-0.156 1.048-0.434s0.434-0.655 0.434-1.048v-1.481h2.963v14.815z"></path>
</symbol>
<symbol id="caret-down" viewBox="0 0 28 32">
<path fill="#fff" style="fill: var(--color1, #fff)" d="M5.898 12h16.513l-7.423 8.391c-0.221 0.25-0.521 0.39-0.834 0.39s-0.613-0.14-0.834-0.39l-7.422-8.391z"></path>
</symbol>
<symbol id="amazon-logo" viewBox="0 0 106 32">
<path d="M65.776 25.012c-6.163 4.543-15.093 6.965-22.782 6.965-10.782 0-20.489-3.988-27.831-10.621-0.576-0.522-0.061-1.233 0.632-0.826 7.926 4.611 17.723 7.385 27.846 7.385 6.828 0 14.336-1.413 21.241-4.343 1.044-0.442 1.916 0.684 0.896 1.441z"></path>
<path d="M68.338 22.081c-0.784-1.006-5.206-0.476-7.191-0.241-0.604 0.073-0.697-0.452-0.153-0.831 3.522-2.48 9.3-1.763 9.975-0.932 0.674 0.836-0.175 6.628-3.484 9.394-0.508 0.424-0.992 0.199-0.766-0.365 0.744-1.857 2.41-6.015 1.621-7.025z"></path>
<path d="M61.285 3.511v-2.41c0-0.365 0.277-0.61 0.61-0.61h10.788c0.347 0 0.623 0.249 0.623 0.61v2.064c-0.005 0.346-0.295 0.798-0.812 1.515l-5.589 7.98c2.077-0.051 4.269 0.259 6.153 1.32 0.424 0.241 0.54 0.59 0.572 0.938v2.571c0 0.351-0.388 0.762-0.794 0.55-3.319-1.741-7.726-1.93-11.397 0.019-0.375 0.203-0.766-0.203-0.766-0.554v-2.442c0-0.392 0.005-1.062 0.397-1.657l6.476-9.286h-5.635c-0.346 0-0.623-0.245-0.623-0.604z"></path>
<path d="M21.938 18.546h-3.283c-0.315-0.023-0.562-0.259-0.586-0.558v-16.842c0-0.337 0.281-0.604 0.632-0.604h3.061c0.319 0.013 0.572 0.259 0.596 0.562v2.202h0.061c0.798-2.128 2.298-3.121 4.321-3.121 2.054 0 3.336 0.992 4.261 3.121 0.794-2.128 2.6-3.121 4.533-3.121 1.375 0 2.881 0.568 3.799 1.842 1.039 1.417 0.826 3.476 0.826 5.28l-0.005 10.63c0 0.337-0.281 0.61-0.632 0.61h-3.277c-0.329-0.023-0.59-0.287-0.59-0.61v-8.927c0-0.71 0.065-2.484-0.093-3.157-0.245-1.131-0.978-1.449-1.93-1.449-0.794 0-1.625 0.53-1.962 1.38s-0.305 2.272-0.305 3.227v8.927c0 0.337-0.281 0.61-0.632 0.61h-3.277c-0.332-0.023-0.59-0.287-0.59-0.61l-0.005-8.927c0-1.878 0.308-4.643-2.022-4.643-2.358 0-2.266 2.695-2.266 4.643v8.927c0 0.337-0.281 0.61-0.632 0.61z"></path>
<path d="M82.591 0.184c4.87 0 7.505 4.181 7.505 9.5 0 5.138-2.913 9.213-7.505 9.213-4.783 0-7.385-4.181-7.385-9.394 0-5.244 2.636-9.32 7.385-9.32zM82.618 3.623c-2.419 0-2.571 3.297-2.571 5.35 0 2.058-0.033 6.452 2.544 6.452 2.544 0 2.663-3.544 2.663-5.705 0-1.421-0.061-3.121-0.489-4.469-0.368-1.173-1.104-1.629-2.146-1.629z"></path>
<path d="M96.408 18.546h-3.269c-0.329-0.023-0.59-0.287-0.59-0.61l-0.005-16.846c0.027-0.308 0.301-0.55 0.632-0.55h3.042c0.287 0.013 0.522 0.208 0.586 0.47v2.576h0.061c0.918-2.304 2.206-3.402 4.473-3.402 1.473 0 2.908 0.53 3.832 1.984 0.858 1.347 0.858 3.614 0.858 5.244v10.602c-0.037 0.295-0.308 0.53-0.632 0.53h-3.29c-0.301-0.023-0.55-0.245-0.582-0.53v-9.148c0-1.842 0.213-4.537-2.054-4.537-0.798 0-1.533 0.536-1.896 1.347-0.462 1.030-0.522 2.054-0.522 3.189v9.070c-0.005 0.337-0.291 0.61-0.642 0.61z"></path>
<path d="M52.687 10.498v-0.71c-2.372 0-4.878 0.508-4.878 3.305 0 1.417 0.734 2.378 1.994 2.378 0.924 0 1.749-0.568 2.272-1.491 0.646-1.135 0.614-2.202 0.614-3.48zM55.996 18.5c-0.217 0.195-0.53 0.208-0.776 0.079-1.090-0.904-1.283-1.325-1.883-2.188-1.801 1.837-3.075 2.386-5.41 2.386-2.761 0-4.911-1.703-4.911-5.114 0-2.663 1.445-4.477 3.498-5.364 1.782-0.784 4.269-0.924 6.171-1.14v-0.424c0-0.78 0.061-1.703-0.397-2.378-0.402-0.604-1.167-0.854-1.842-0.854-1.251 0-2.368 0.642-2.639 1.97-0.055 0.295-0.273 0.586-0.568 0.6l-3.185-0.342c-0.268-0.061-0.562-0.277-0.489-0.688 0.734-3.86 4.219-5.022 7.339-5.022 1.597 0 3.684 0.424 4.944 1.635 1.597 1.491 1.445 3.48 1.445 5.645v5.114c0 1.537 0.636 2.211 1.237 3.042 0.213 0.295 0.259 0.65-0.009 0.872-0.67 0.558-1.861 1.597-2.516 2.178l-0.009-0.009z"></path>
<path d="M9.666 10.498v-0.71c-2.372 0-4.878 0.508-4.878 3.305 0 1.417 0.734 2.378 1.994 2.378 0.924 0 1.749-0.568 2.272-1.491 0.646-1.135 0.614-2.202 0.614-3.48zM12.975 18.5c-0.217 0.195-0.53 0.208-0.776 0.079-1.089-0.904-1.283-1.325-1.883-2.188-1.801 1.837-3.075 2.386-5.41 2.386-2.761 0-4.911-1.703-4.911-5.114 0-2.663 1.445-4.477 3.498-5.364 1.783-0.784 4.269-0.924 6.171-1.14v-0.424c0-0.78 0.061-1.703-0.397-2.378-0.402-0.604-1.167-0.854-1.842-0.854-1.251 0-2.368 0.642-2.639 1.97-0.055 0.295-0.273 0.586-0.568 0.6l-3.185-0.342c-0.268-0.061-0.562-0.277-0.489-0.688 0.734-3.86 4.219-5.022 7.339-5.022 1.597 0 3.684 0.424 4.944 1.635 1.597 1.491 1.445 3.48 1.445 5.645v5.114c0 1.537 0.636 2.211 1.237 3.042 0.213 0.295 0.259 0.65-0.009 0.872-0.67 0.558-1.861 1.597-2.516 2.178l-0.009-0.009z"></path>
</symbol>
</defs>
</svg>

